<?xml version="1.0" standalone="no"?>
<!DOCTYPE svg PUBLIC "-//W3C//DTD SVG 20010904//EN"
 "http://www.w3.org/TR/2001/REC-SVG-20010904/DTD/svg10.dtd">
<svg version="1.0" xmlns="http://www.w3.org/2000/svg"
 width="67.000000pt" height="67.000000pt" viewBox="0 0 67.000000 67.000000"
 preserveAspectRatio="xMidYMid meet">

<g transform="translate(0.000000,67.000000) scale(0.100000,-0.100000)"
fill="#000000" stroke="none">
<path d="M291 575 c-112 -46 -205 -86 -208 -88 -12 -13 13 -37 38 -37 16 0 38
-9 48 -19 19 -19 22 -19 210 55 l190 75 -17 47 c-12 32 -24 48 -37 49 -11 1
-112 -36 -224 -82z"/>
<path d="M74 405 c-15 -23 -15 -27 0 -50 10 -15 26 -25 41 -25 15 0 31 10 41
25 15 23 15 27 0 50 -10 15 -26 25 -41 25 -15 0 -31 -10 -41 -25z"/>
<path d="M177 349 c-9 -17 -26 -33 -37 -36 -19 -5 -20 -14 -20 -154 l0 -149
240 0 240 0 0 185 0 185 -202 0 -203 0 -18 -31z"/>
</g>
</svg>
