<?xml version="1.0" standalone="no"?>
<!DOCTYPE svg PUBLIC "-//W3C//DTD SVG 20010904//EN"
 "http://www.w3.org/TR/2001/REC-SVG-20010904/DTD/svg10.dtd">
<svg version="1.0" xmlns="http://www.w3.org/2000/svg"
 width="512.000000pt" height="512.000000pt" viewBox="0 0 512.000000 512.000000"
 preserveAspectRatio="xMidYMid meet">

<g transform="translate(0.000000,512.000000) scale(0.100000,-0.100000)"
fill="#000000" stroke="none">
<path d="M3670 4909 c-44 -18 -90 -59 -107 -97 -15 -32 -18 -82 -21 -353 l-3
-316 -388 -7 c-853 -15 -1263 -96 -1666 -329 -228 -132 -375 -283 -508 -522
-132 -236 -197 -571 -184 -943 8 -217 52 -414 148 -655 77 -194 299 -599 366
-669 47 -49 140 -33 164 29 6 16 4 71 -6 161 -23 206 -30 477 -16 628 57 595
291 887 826 1030 245 65 443 84 902 84 l362 0 3 -317 c4 -333 6 -353 51 -402
48 -52 154 -76 224 -50 42 15 1261 1234 1284 1284 23 49 24 103 4 153 -22 51
-1223 1256 -1280 1283 -43 20 -115 24 -155 8z"/>
<path d="M733 4515 c-301 -55 -554 -260 -671 -546 -64 -156 -63 -111 -60
-1645 l3 -1389 23 -80 c68 -244 248 -460 475 -570 182 -87 37 -80 1662 -80
l1440 0 78 23 c250 72 457 249 566 484 76 161 74 146 78 702 l4 499 -27 28
c-32 34 -74 45 -106 28 -13 -6 -43 -28 -68 -49 -25 -20 -73 -53 -108 -74 -34
-21 -66 -45 -71 -55 -5 -9 -11 -194 -13 -411 -4 -365 -6 -399 -24 -452 -62
-171 -217 -302 -389 -328 -47 -7 -508 -10 -1405 -8 -1315 3 -1336 3 -1390 23
-181 67 -307 226 -331 416 -6 54 -9 544 -7 1394 l3 1310 23 59 c32 86 63 134
123 195 62 61 111 92 195 122 51 18 89 22 294 26 l235 6 103 53 c56 29 151 71
210 94 59 23 120 46 135 52 61 23 72 111 21 159 l-26 24 -451 2 c-337 1 -470
-2 -524 -12z"/>
</g>
</svg>
