<?xml version="1.0" standalone="no"?>
<!DOCTYPE svg PUBLIC "-//W3C//DTD SVG 20010904//EN"
 "http://www.w3.org/TR/2001/REC-SVG-20010904/DTD/svg10.dtd">
<svg version="1.0" xmlns="http://www.w3.org/2000/svg"
 width="512.000000pt" height="512.000000pt" viewBox="0 0 512.000000 512.000000"
 preserveAspectRatio="xMidYMid meet">

<g transform="translate(0.000000,512.000000) scale(0.100000,-0.100000)"
fill="#000000" stroke="none">
<path d="M2405 5114 c-16 -2 -77 -9 -135 -15 -555 -59 -1104 -325 -1509 -730
-209 -210 -353 -412 -486 -684 -167 -338 -247 -659 -262 -1035 -6 -183 10
-428 33 -471 24 -47 96 -55 134 -14 l23 24 -13 193 c-47 699 187 1345 668
1840 282 291 588 482 970 608 1122 368 2342 -135 2874 -1185 177 -349 258
-690 258 -1083 0 -385 -76 -712 -244 -1057 -307 -628 -872 -1086 -1551 -1260
-220 -56 -332 -69 -590 -69 -252 -1 -357 11 -570 63 -174 43 -310 93 -480 175
-471 230 -833 586 -1081 1061 -36 69 -74 130 -84 135 -48 26 -113 -5 -125 -60
-5 -23 6 -54 59 -157 380 -746 1105 -1258 1940 -1368 768 -102 1547 153 2105
690 418 402 677 911 762 1494 19 126 21 176 16 405 -5 277 -15 360 -73 591
-88 346 -283 724 -517 1000 -386 456 -918 766 -1497 870 -212 38 -481 55 -625
39z"/>
<path d="M2521 4164 l-31 -26 0 -744 0 -744 -741 0 -741 0 -29 -29 c-34 -35
-38 -77 -10 -112 l19 -24 749 -5 748 -5 5 -748 5 -749 24 -19 c30 -24 82 -24
112 0 l24 19 5 749 5 748 195 6 c107 3 196 6 197 7 11 9 33 65 33 82 0 12 -13
35 -29 51 l-29 29 -186 0 -186 0 0 744 0 744 -31 26 c-17 14 -41 26 -54 26
-13 0 -37 -12 -54 -26z"/>
<path d="M3459 2621 c-37 -38 -39 -82 -4 -116 l24 -25 336 0 336 0 24 25 c35
34 33 78 -4 116 l-29 29 -327 0 -327 0 -29 -29z"/>
</g>
</svg>
